<?xml version="1.0" standalone="no"?>
<!DOCTYPE svg PUBLIC "-//W3C//DTD SVG 20010904//EN"
 "http://www.w3.org/TR/2001/REC-SVG-20010904/DTD/svg10.dtd">
<svg version="1.0" xmlns="http://www.w3.org/2000/svg"
 width="1061.000000pt" height="1061.000000pt" viewBox="0 0 1061.000000 1061.000000"
 preserveAspectRatio="xMidYMid meet">
<metadata>
Created by potrace 1.14, written by Peter Selinger 2001-2017
</metadata>
<g transform="translate(0.000000,1061.000000) scale(0.100000,-0.100000)"
fill="#000000" stroke="none">
<path d="M5150 10350 l0 -260 -315 0 -315 0 0 -180 0 -180 300 0 300 0 0 -649
0 -650 -57 -5 c-490 -49 -970 -178 -1371 -367 -46 -21 -85 -39 -87 -39 -2 0
-68 -34 -147 -77 -384 -205 -669 -415 -974 -718 -349 -347 -555 -613 -761
-981 -141 -253 -299 -624 -366 -859 -50 -174 -57 -205 -78 -302 -85 -413 -127
-846 -109 -1129 39 -612 175 -1132 436 -1664 205 -418 453 -751 863 -1161 391
-390 933 -719 1486 -901 475 -157 1059 -241 1502 -217 823 44 1509 260 2138
674 266 174 507 381 730 624 321 352 493 607 715 1066 230 474 359 1005 399
1646 11 164 4 316 -24 564 -60 527 -213 1034 -455 1510 -206 406 -443 730
-774 1060 -309 308 -575 518 -891 706 -510 301 -1301 559 -1715 559 l-87 0 -7
61 c-3 34 -6 319 -6 633 0 501 2 574 16 594 15 22 17 22 305 22 l289 0 -2 173
-3 172 -190 6 c-104 4 -241 7 -302 8 l-113 1 0 260 0 260 -165 0 -165 0 0
-260z m-415 -2316 l38 -16 -151 -144 c-235 -225 -343 -363 -442 -563 -114
-229 -182 -515 -203 -846 l-2 -40 -75 -5 -75 -5 -7 -45 c-10 -66 -9 -226 2
-299 10 -68 32 -108 70 -128 48 -24 49 -37 50 -390 0 -183 -3 -333 -7 -333 -5
0 -98 72 -208 160 -159 127 -211 163 -252 175 -55 16 -57 19 -68 98 l-6 47
125 0 126 0 0 48 c0 26 3 91 7 145 l6 97 -136 0 -137 0 0 104 c0 116 0 116 81
116 20 0 56 3 80 6 l44 6 2 176 c5 330 51 542 173 797 162 336 421 617 724
785 66 36 150 68 182 69 12 1 39 -6 59 -15z m1319 -35 c341 -172 594 -425 770
-769 135 -263 190 -505 191 -832 l0 -187 105 -3 105 -3 3 -94 c2 -60 -1 -98
-9 -107 -9 -11 -42 -14 -140 -14 l-129 0 0 -140 0 -140 135 0 135 0 0 -49 c0
-72 -13 -98 -52 -106 -60 -13 -111 -46 -292 -187 -103 -80 -184 -137 -192
-134 -16 6 -17 75 -7 436 l6 235 37 35 c21 19 43 45 49 57 7 14 11 93 11 217
l0 196 -32 0 c-18 0 -49 3 -69 6 l-36 6 -7 112 c-12 206 -62 441 -130 607
-123 306 -307 563 -564 791 -94 83 -102 93 -86 105 36 26 93 15 198 -38z
m-701 -130 c30 -16 233 -186 346 -288 362 -330 510 -651 499 -1090 l-3 -135
-866 -4 c-610 -3 -873 -1 -887 7 -29 15 -36 97 -22 256 30 352 170 654 408
876 42 39 142 127 222 194 244 205 253 210 303 184z m-2243 -1754 l0 -115
-165 0 c-151 0 -167 2 -185 20 -40 40 -34 114 13 158 26 25 122 40 305 50 l32
2 0 -115z m4730 79 c36 -22 60 -64 60 -107 0 -27 -7 -41 -31 -61 -42 -35 -53
-37 -214 -34 l-140 3 -3 94 c-1 52 -1 100 2 108 8 21 289 18 326 -3z m-2462
-319 c44 -19 78 -49 100 -90 13 -24 17 -68 20 -222 4 -183 3 -195 -19 -239
-28 -58 -95 -94 -177 -94 -67 0 -109 18 -149 63 -41 47 -46 85 -41 299 4 181
11 210 56 251 49 44 145 59 210 32z m-737 -169 c73 -50 74 -55 74 -471 l0
-370 -150 -102 c-82 -56 -153 -102 -157 -102 -5 -1 -8 207 -8 462 0 518 -1
509 74 575 48 42 113 45 167 8z m1486 -2 c12 -7 34 -30 50 -51 l28 -36 3 -475
c2 -451 2 -474 -15 -470 -10 3 -70 39 -134 80 -169 110 -161 83 -153 501 3
182 10 349 16 371 22 87 128 129 205 80z m-3111 -13 l112 -6 -32 -105 -33
-105 -499 -3 c-274 -2 -519 0 -543 3 -61 9 -101 50 -101 102 0 52 31 100 72
112 36 10 845 12 1024 2z m5562 0 c73 -10 105 -43 105 -107 0 -40 -4 -51 -30
-75 -28 -24 -42 -28 -125 -34 -51 -3 -277 -5 -503 -3 -378 3 -413 4 -448 22
-51 25 -69 63 -65 134 l3 57 45 6 c66 9 956 9 1018 0z m-4842 -992 c70 -62
128 -122 137 -142 16 -32 17 -184 17 -1961 0 -1059 -2 -1926 -4 -1926 -5 0
-190 86 -226 105 -14 7 -34 25 -45 40 -19 26 -20 42 -20 484 l0 457 -35 59
c-19 32 -60 84 -90 115 -128 133 -299 144 -432 30 -73 -63 -89 -107 -99 -273
-4 -78 -8 -204 -8 -279 -1 -141 -5 -168 -25 -168 -21 0 -248 223 -263 258 -20
49 -33 1383 -13 1407 11 13 71 15 486 15 l474 0 0 230 0 230 -397 2 -398 3 3
615 c2 519 5 618 17 637 8 12 123 117 255 232 l241 211 152 -138 c84 -75 207
-185 273 -243z m3819 159 c145 -137 238 -233 245 -251 6 -19 10 -242 10 -622
l0 -592 -82 -6 c-46 -4 -219 -7 -384 -7 l-301 0 -7 -31 c-3 -17 -6 -120 -6
-229 l0 -197 293 -6 c160 -4 367 -7 458 -7 133 0 169 -3 178 -14 9 -11 14
-187 18 -678 6 -603 5 -668 -11 -714 -18 -56 -52 -92 -186 -199 l-85 -67 -8
33 c-4 19 -11 151 -15 294 -8 253 -9 261 -34 310 -76 147 -247 206 -394 136
-63 -30 -95 -63 -172 -177 l-41 -62 -3 -463 c-3 -392 -5 -468 -18 -487 -16
-24 -263 -155 -274 -145 -3 3 -6 872 -6 1929 0 1742 2 1927 16 1964 13 32 62
80 248 239 127 109 249 215 271 235 22 19 44 35 48 36 4 0 113 -100 242 -222z
m-5205 -283 l0 -115 -357 0 c-333 0 -360 1 -389 19 -82 50 -63 172 32 201 16
4 183 9 372 9 l342 1 0 -115z m3340 -135 c404 -265 577 -386 591 -412 6 -10 8
-675 7 -1751 -3 -1880 0 -1767 -57 -1767 -14 0 -71 -9 -126 -19 -55 -11 -128
-22 -162 -26 l-62 -7 -3 694 c-3 690 -3 693 -26 752 -32 86 -68 143 -131 210
-177 185 -487 230 -711 103 -73 -41 -168 -138 -206 -212 -64 -122 -64 -121
-64 -868 0 -371 -3 -678 -7 -680 -5 -3 -55 4 -113 14 -58 11 -141 25 -185 33
-52 10 -84 21 -92 32 -10 14 -13 222 -13 1053 -1 570 -5 1342 -10 1716 -7 545
-6 686 5 710 9 23 70 69 249 190 131 88 342 231 469 318 193 131 237 157 262
154 18 -2 167 -93 385 -237z m3304 230 c46 -17 72 -102 45 -152 -6 -11 -29
-28 -52 -39 -39 -17 -70 -19 -401 -19 l-359 0 7 102 c4 63 11 105 19 110 18
11 711 10 741 -2z m-6604 -580 l0 -111 -386 3 -386 3 -29 33 c-19 22 -29 43
-29 65 0 59 10 74 58 96 45 19 66 20 410 21 l362 0 0 -110z m6593 99 c53 -14
72 -49 68 -127 -1 -13 -14 -37 -30 -53 l-29 -29 -381 0 -381 0 0 110 0 110
358 0 c217 0 372 -4 395 -11z m-6643 -488 c13 -24 13 -171 1 -204 -10 -25 -55
-47 -96 -47 -16 0 -25 -8 -29 -27 -4 -16 -10 -316 -13 -668 -3 -398 -9 -644
-15 -650 -11 -12 -68 50 -125 134 -54 81 -195 369 -256 526 -140 356 -237 713
-237 870 0 44 18 69 55 78 11 2 174 5 362 6 329 1 343 0 353 -18z m6543 10
c93 -6 100 -8 124 -35 24 -28 25 -34 18 -100 -5 -60 -35 -194 -86 -386 -31
-117 -101 -334 -134 -420 -50 -127 -181 -398 -235 -485 -56 -91 -138 -195
-155 -195 -22 0 -26 143 -23 759 l3 585 -64 12 c-88 16 -99 31 -99 138 -1 70
3 89 19 110 l20 26 257 -1 c141 -1 301 -4 355 -8z"/>
<path d="M3309 4471 c-78 -24 -144 -86 -164 -156 -16 -53 -43 -491 -32 -519 6
-15 34 -16 244 -14 l238 3 0 255 c0 248 -1 256 -23 300 -60 114 -157 162 -263
131z"/>
<path d="M3165 2585 c-22 -8 -41 -15 -42 -15 -1 0 -14 -17 -28 -37 -70 -104 7
-245 133 -245 60 0 83 11 119 59 36 47 40 136 7 179 -48 64 -117 86 -189 59z"/>
<path d="M7228 4488 c-70 -15 -140 -74 -180 -153 -17 -33 -22 -122 -19 -387
l1 -168 214 0 c118 0 221 3 230 6 14 5 16 39 16 279 l0 273 -45 50 c-77 85
-144 116 -217 100z"/>
<path d="M7345 2593 c-36 -9 -87 -55 -102 -91 -24 -58 -10 -118 42 -169 39
-39 47 -43 92 -43 58 0 105 26 140 79 44 64 23 151 -48 203 -27 20 -89 31
-124 21z"/>
<path d="M5203 4066 c-142 -35 -298 -157 -361 -282 -90 -178 -51 -379 103
-543 107 -112 214 -161 361 -163 253 -4 454 170 500 432 29 166 -10 285 -132
408 -132 133 -307 188 -471 148z m192 -275 c91 -43 144 -124 145 -222 0 -77
-31 -133 -101 -182 -94 -65 -191 -61 -271 11 -131 118 -102 314 57 388 60 29
116 30 170 5z"/>
</g>
</svg>
