<svg xmlns="http://www.w3.org/2000/svg" version="1.1" id="Layer_1" x="0px" y="0px" enable-background="new 0 0 884 1842" viewBox="28.78 392.85 828.52 1060.67">
  <path fill="#1E2836" opacity="1.000000" stroke="none" d=" M793.055786,1261.901611 C780.563232,1281.704956 766.351868,1299.739014 751.051331,1316.933472 C726.159180,1344.906616 698.422668,1369.495483 666.612000,1389.515137 C619.663574,1419.061401 568.982788,1438.336426 514.227905,1447.220093 C482.408447,1452.382812 450.400146,1454.910156 418.293030,1452.753296 C379.728973,1450.162354 342.020752,1442.911987 305.171234,1430.520630 C262.294189,1416.102295 223.927094,1394.064697 187.929169,1367.097412 C160.219666,1346.339233 138.504410,1319.976318 116.345161,1293.888062 C98.025108,1272.319702 83.890938,1248.147095 71.578972,1222.902466 C58.341461,1195.760010 48.398087,1167.357300 40.835110,1138.072388 C35.005287,1115.498535 31.696768,1092.665771 29.819706,1069.442505 C26.573135,1029.275146 31.282665,989.873352 38.905132,950.594482 C45.563744,916.282471 57.309971,883.591492 72.405205,852.331177 C86.704262,822.719543 103.769241,794.415833 125.068848,769.177124 C147.934189,742.083130 172.579620,716.676514 200.944427,695.085815 C225.252014,676.583374 251.416718,661.250000 278.977386,648.276550 C319.154510,629.364075 361.538483,617.848328 405.419159,611.672424 C411.452454,610.823242 417.605560,610.825623 424.088104,610.409058 C424.088104,567.293030 424.088104,524.698242 424.088104,481.421875 C404.194305,481.421875 384.309174,481.421875 364.216675,481.421875 C364.216675,468.818237 364.216675,456.894287 364.216675,444.446198 C384.998108,444.446198 405.595337,444.446198 426.682251,444.446198 C426.682251,426.924530 426.682251,409.908539 426.682251,392.850830 C438.448792,392.850830 449.532501,392.850830 461.180145,392.850830 C461.180145,409.925964 461.180145,426.679016 461.180145,443.999786 C464.270203,444.193115 466.850403,444.466034 469.433533,444.497925 C485.419678,444.695496 501.406372,444.914185 517.393127,444.937073 C520.620972,444.941711 521.897034,445.985260 521.867615,449.221985 C521.772339,459.696533 521.832092,470.172485 521.832092,481.483795 C519.476074,481.483795 517.740295,481.484741 516.004517,481.483643 C499.688965,481.473450 483.372742,481.539703 467.058258,481.400543 C462.757751,481.363831 461.386322,482.932953 461.393188,487.294769 C461.448700,522.615723 461.232910,557.937134 461.205505,593.258423 C461.201141,598.889648 461.724213,604.521240 462.069885,611.492249 C469.240143,611.492249 476.257385,610.791016 483.090637,611.615295 C510.580353,614.931458 537.216431,621.969604 563.309387,631.140442 C601.277466,644.485046 637.378052,661.740417 670.163513,685.115601 C686.859924,697.019531 702.638245,710.371704 717.868652,724.134766 C742.265076,746.180847 763.510803,771.195862 782.169128,798.259521 C796.800232,819.481750 808.847229,842.224731 819.402405,865.756775 C831.022278,891.662659 839.595642,918.569702 846.180786,946.140320 C851.161072,966.991638 854.029602,988.113586 856.073364,1009.489624 C859.258667,1042.805542 855.811768,1075.538696 850.627319,1108.275024 C845.270630,1142.099121 835.634399,1174.767822 821.837524,1206.009644 C813.434448,1225.037720 802.882812,1243.117065 793.055786,1261.901611 M133.869858,1108.085693 C137.158447,1107.678223 140.577469,1107.677734 143.678146,1106.684082 C145.133392,1106.217773 146.798187,1103.910400 146.939392,1102.311157 C147.347824,1097.685181 146.695312,1092.966431 147.091125,1088.338135 C147.516144,1083.368286 145.482620,1081.964722 140.823212,1081.997803 C121.496002,1082.135010 102.167000,1082.005371 82.838814,1082.044922 C80.871742,1082.048950 78.911774,1082.683594 76.937935,1082.763184 C71.483856,1082.982910 69.470528,1086.430176 69.990822,1091.094116 C70.850838,1098.803467 71.816132,1106.579712 73.710167,1114.082031 C83.298088,1152.059448 96.655907,1188.628906 115.621361,1223.011719 C119.681786,1230.372925 124.439987,1237.232544 131.488312,1243.595215 C131.721725,1241.131104 131.962234,1239.721924 131.971832,1238.311157 C132.046371,1227.374146 132.116669,1216.436890 132.111435,1205.499634 C132.101532,1184.839111 131.993927,1164.178467 132.039474,1143.518188 C132.048569,1139.388794 132.560547,1135.260376 132.841858,1130.158569 C132.895004,1122.810425 132.948151,1115.462158 133.869858,1108.085693 M753.033508,1110.020386 C753.064026,1116.986816 753.094604,1123.953247 753.032532,1131.814331 C751.470642,1169.343506 750.947327,1206.864990 753.105347,1244.416992 C754.583252,1243.921875 755.224792,1243.406494 755.764954,1242.800903 C769.820862,1227.042114 778.285278,1207.987305 786.992859,1189.144531 C796.918762,1167.665405 802.944458,1144.833496 808.912048,1122.036011 C811.338379,1112.766968 813.545471,1103.369995 814.815430,1093.892334 C815.757324,1086.862915 811.973816,1083.250366 804.957336,1083.084717 C785.330750,1082.620850 765.700500,1082.265015 746.069641,1082.049927 C737.829773,1081.959595 736.097595,1083.824707 735.911987,1091.918091 C735.847107,1094.747437 736.036987,1097.582031 735.990295,1100.412354 C735.914185,1105.028809 738.055115,1107.581177 742.698669,1108.016602 C746.158386,1108.340942 749.611389,1108.737183 753.033508,1110.020386 M354.998260,815.877625 C356.329224,816.577576 357.658783,817.885803 358.991333,817.888855 C395.084900,817.971497 431.178955,817.972473 467.272552,817.862488 C479.230652,817.826111 491.187439,817.295227 503.145325,817.274658 C511.607971,817.260071 520.072571,817.691284 528.533813,817.993774 C530.934814,818.079529 532.535583,817.617004 531.948303,813.813965 C531.966370,808.153198 532.119263,802.489075 531.979187,796.832214 C531.373230,772.359680 524.920044,749.611633 511.218414,729.197205 C494.933990,704.934509 472.036102,687.370422 449.879883,669.038757 C445.479584,665.397888 441.754547,666.101379 438.111755,669.132935 C423.951050,680.917480 409.529449,692.440430 396.026978,704.948120 C384.465881,715.657410 375.155151,728.354797 368.250061,742.727356 C357.232727,765.659241 353.416748,789.824219 354.998260,815.877625 M192.770569,1063.968628 C192.770569,1080.535645 192.770569,1097.102783 192.770569,1114.890991 C219.404968,1114.758179 246.094360,1115.790405 272.948273,1115.132324 C272.940765,1131.056274 272.933228,1146.980103 271.997345,1162.886353 C240.106232,1162.886353 208.215118,1162.886353 175.885056,1162.886353 C175.885056,1168.044067 175.885071,1172.190063 175.885071,1176.335938 C175.885132,1215.465820 175.790604,1254.596313 176.015305,1293.724976 C176.040909,1298.182129 176.450577,1303.908081 179.112732,1306.835693 C186.487778,1314.946289 195.147614,1321.888794 203.299683,1329.292847 C204.615433,1327.368042 204.717102,1326.431885 204.737427,1325.494019 C205.076263,1309.863892 205.064789,1294.214966 205.925766,1278.614014 C206.215607,1273.362183 207.486511,1267.367310 210.420258,1263.197510 C222.742508,1245.683838 245.373047,1244.161133 260.273987,1259.666016 C265.153290,1264.743042 268.717072,1271.084229 272.986115,1277.798950 C272.989807,1305.960083 273.366119,1334.129150 272.757935,1362.277100 C272.587433,1370.169312 274.853790,1374.330444 282.090363,1376.979004 C288.331543,1379.263306 294.171082,1382.645142 300.837677,1385.854492 C300.837677,1383.321411 300.835358,1381.838013 300.837982,1380.354614 C300.892548,1349.696899 301.001617,1319.039185 300.992676,1288.381470 C300.965302,1194.402832 300.825562,1100.424072 300.975342,1006.445740 C300.986389,999.528687 298.407867,995.031860 293.378540,990.793701 C281.822083,981.055420 270.548950,970.977600 259.264038,960.921814 C253.994888,956.226562 248.965561,951.262207 243.986069,946.569214 C229.292465,959.353394 215.142258,971.442322 201.293381,983.867126 C197.736679,987.057983 192.983856,989.788940 192.988647,995.699585 C193.006866,1018.189148 192.985413,1040.678711 192.770569,1063.968628 M615.626160,1274.925415 C619.105713,1269.878174 622.262939,1264.567383 626.130371,1259.837280 C634.745422,1249.300537 647.639648,1246.059570 660.350342,1250.750000 C672.414734,1255.202026 680.061096,1266.395508 680.114197,1279.647095 C680.148926,1288.311890 680.020874,1296.983276 680.320374,1305.639404 C680.573120,1312.944458 681.336426,1320.231934 681.964233,1328.756470 C688.836304,1323.325928 694.501343,1318.720337 700.304749,1314.296143 C707.378967,1308.902954 710.054077,1301.824219 709.962402,1293.017334 C709.537781,1252.210205 709.391418,1211.400146 709.102966,1170.591553 C709.051208,1163.276001 708.959167,1163.291382 701.666260,1163.259155 C672.504517,1163.130371 643.342834,1162.991577 614.135681,1161.938721 C614.318115,1146.273071 614.500549,1130.607422 615.661194,1114.899048 C641.345886,1114.656372 667.064026,1115.942017 692.746765,1113.936523 C692.746765,1094.763062 692.746765,1076.311768 692.833191,1056.944580 C692.732971,1037.473022 692.560242,1018.001282 692.585327,998.529907 C692.591370,993.878540 691.160461,990.264099 687.594543,987.207275 C682.425049,982.775757 677.436890,978.125305 672.492126,973.440796 C662.985229,964.434143 653.563171,955.338074 644.019287,946.196045 C643.095703,946.897827 642.422180,947.354553 641.810120,947.882629 C625.463684,961.983093 609.204041,976.185791 592.731995,990.137756 C588.007263,994.139526 586.356323,998.706421 586.363770,1004.847595 C586.504211,1121.266846 586.467346,1237.686279 586.467346,1354.105713 C586.467346,1364.342651 586.467346,1374.579712 586.467346,1385.624512 C594.286987,1381.688843 600.950012,1378.038452 607.866394,1374.956909 C612.602844,1372.846680 614.126465,1369.767212 614.116333,1364.648804 C614.061829,1337.179565 614.347534,1309.709595 614.551025,1282.240112 C614.568237,1279.920044 614.845520,1277.601685 615.626160,1274.925415 M540.942444,1133.790039 C541.017578,1107.178467 541.131348,1080.566650 541.065552,1053.955444 C541.061890,1052.464722 539.945312,1050.488892 538.722351,1049.569580 C531.721863,1044.307739 524.672241,1039.087036 517.381531,1034.240112 C493.397583,1018.295288 469.323364,1002.485718 445.190643,986.767151 C443.985962,985.982483 441.475433,985.857727 440.303802,986.591980 C434.078766,990.492920 428.104492,994.792053 422.011780,998.906494 C397.277924,1015.609436 372.505646,1032.255859 347.857300,1049.083862 C346.362640,1050.104370 344.964386,1052.516113 344.960724,1054.283447 C344.903809,1081.741699 345.084839,1109.200439 345.055237,1137.627075 C345.332275,1148.103760 345.835266,1158.579956 345.850128,1169.057007 C345.956116,1243.870239 346.019196,1318.683594 345.874054,1393.496460 C345.864288,1398.522217 346.941101,1401.030151 352.161133,1401.845947 C363.235107,1403.576538 374.238068,1405.761230 385.609406,1407.821411 C385.815460,1405.622559 385.985657,1404.656860 385.984985,1403.691162 C385.960724,1368.534424 385.904480,1333.377808 385.894745,1298.221069 C385.892487,1290.094727 385.708038,1281.947632 386.208008,1273.847290 C386.801880,1264.226440 389.719086,1255.147827 395.503510,1247.352417 C410.813568,1226.719971 431.863922,1220.953735 456.104462,1225.480591 C482.155029,1230.345581 501.319244,1254.459106 500.881561,1279.745239 C500.310791,1312.722168 500.837067,1345.718262 500.884308,1378.706055 C500.897614,1387.994385 500.886353,1397.282715 500.886353,1407.433472 C513.861938,1405.350708 525.943848,1403.462646 537.989197,1401.364868 C538.805908,1401.222412 539.826660,1399.551758 539.935120,1398.507202 C540.414978,1393.882080 540.840759,1389.226440 540.848694,1384.581055 C540.976074,1310.435303 541.048340,1236.289551 541.096008,1162.143677 C541.101868,1152.984985 540.894836,1143.826172 540.942444,1133.790039 M296.673157,856.640503 C295.907196,855.013184 294.699432,853.451721 294.445312,851.748047 C292.453613,838.394836 292.355530,825.025391 294.413086,811.278809 C299.657990,811.037964 304.721069,810.805542 309.695679,810.577087 C310.724335,779.510071 316.236328,750.024719 329.636597,722.308960 C343.146637,694.366211 365.091034,673.437439 389.176086,652.076904 C385.295532,650.915466 382.889648,649.479980 380.632446,649.684570 C377.089752,650.005615 373.424805,650.957825 370.198425,652.468750 C348.305725,662.721313 330.018036,677.711426 314.732117,696.274841 C287.524841,729.315735 273.131836,767.169617 272.995941,810.185486 C272.972900,817.473206 272.992706,824.761047 272.992706,832.466858 C266.070557,832.967957 259.171967,833.467285 252.057434,833.982239 C252.057434,840.460938 252.057434,846.736511 252.057434,853.709900 C261.031036,853.709900 269.934387,853.709900 279.374481,853.709900 C278.912384,864.144409 278.482178,873.858948 278.028748,884.097778 C269.379486,884.097778 261.323639,884.097778 253.172958,884.097778 C253.497498,886.455261 253.880203,888.248840 253.965820,890.056519 C254.162933,894.218506 255.216873,897.151489 260.301697,897.562378 C262.927643,897.774658 265.730408,899.291016 267.905701,900.940430 C274.778656,906.151428 281.372253,911.729370 288.113953,917.115356 C293.708008,921.584351 299.358734,925.982483 305.843750,931.088806 C305.843750,928.262878 305.843750,926.655029 305.843750,925.047241 C305.843750,907.052124 305.719849,889.055542 305.921265,871.062683 C305.979645,865.847534 306.081726,861.179871 299.748352,859.520325 C298.762909,859.262146 298.044128,857.986206 296.673157,856.640503 M627.486938,883.822205 C620.728516,883.822205 613.970093,883.822205 606.945801,883.822205 C606.945801,873.193848 606.945801,863.494019 606.945801,853.337891 C616.276733,853.337891 625.199707,853.337891 634.133789,853.337891 C634.133789,846.492188 634.133789,840.114441 634.133789,833.424683 C626.952515,833.424683 620.167297,833.424683 612.960205,833.424683 C612.960205,830.989441 612.837585,828.864136 612.978577,826.756470 C615.196289,793.606262 609.857544,761.850403 594.949890,732.014282 C576.544128,695.177002 548.391785,668.313599 510.952332,651.190979 C505.562439,648.725891 501.635193,648.665222 497.152985,651.255066 C547.703857,692.563660 576.905457,744.641296 577.017090,810.868286 C582.432983,811.416443 586.677917,811.846069 591.466492,812.330750 C591.466492,823.608276 591.198425,834.717041 591.565430,845.804810 C591.791260,852.626465 589.857483,857.686523 583.738159,861.191223 C582.280884,862.025940 580.988281,864.492432 580.945862,866.240601 C580.606140,880.222656 580.565857,894.212402 580.474548,908.200012 C580.428406,915.270996 580.466492,922.342529 580.466492,929.413757 C580.931519,929.616821 581.396484,929.819824 581.861511,930.022888 C590.998779,922.933716 600.245422,915.979919 609.235596,908.708862 C615.466553,903.669495 621.608948,898.734375 629.885803,897.464233 C631.070129,897.282471 632.861877,896.111633 633.033752,895.157410 C633.690979,891.507996 633.801575,887.760132 634.135437,883.822205 C631.770081,883.822205 630.115479,883.822205 627.486938,883.822205 M354.457672,892.217346 C353.971558,895.143005 353.074554,898.067017 353.063232,900.994507 C352.956207,928.644958 352.998474,956.295959 353.008667,983.946838 C353.008942,984.689636 353.132538,985.432373 353.278473,987.072632 C362.737305,980.784729 371.480804,974.810120 380.412659,969.131653 C383.159180,967.385437 384.073364,965.444153 384.049805,962.246460 C383.905182,942.587585 384.009918,922.926941 383.941437,903.267212 C383.931061,900.291931 383.654266,897.282837 383.146057,894.350830 C381.843719,886.837158 376.894226,882.109558 369.587067,881.102844 C363.857849,880.313477 357.809631,884.554382 354.457672,892.217346 M503.999725,928.484497 C503.674103,936.955505 503.491364,945.435181 502.983521,953.895203 C502.451630,962.756409 505.144257,969.777283 513.106567,974.468384 C519.569214,978.275879 525.844543,982.401367 533.000000,986.885254 C533.000000,964.488464 533.002380,943.508972 532.998779,922.529541 C532.997375,914.533875 533.127991,906.534729 532.935791,898.543457 C532.707397,889.048096 526.021606,881.899536 517.806458,882.016113 C509.150787,882.138977 504.036163,888.231079 504.006348,898.526855 C503.978394,908.180908 504.000000,917.835022 503.999725,928.484497 M197.047363,884.621521 C194.731613,884.465820 192.416306,884.182190 190.100037,884.174133 C167.972183,884.097473 145.844116,884.030518 123.716263,884.063965 C120.417259,884.068970 117.068771,884.345215 113.831741,884.961304 C108.373230,886.000061 105.537758,890.070435 105.584518,896.151489 C105.628189,901.831482 107.543030,903.962646 113.945129,905.131348 C116.214584,905.545593 118.546158,905.811768 120.849991,905.815979 C146.473892,905.863220 172.097900,905.845764 197.721878,905.845764 C204.352142,905.845764 210.982391,905.845764 218.315796,905.845764 C220.359665,899.226624 222.398666,892.623230 224.806458,884.825562 C214.848648,884.825562 206.406708,884.825562 197.047363,884.621521 M752.494751,884.153259 C728.523499,884.153259 704.551758,884.071045 680.581360,884.216187 C675.171753,884.248901 669.766846,885.073669 664.467896,885.524658 C663.693848,893.222717 662.797546,900.383850 670.755798,903.859253 C673.948792,905.253601 677.758362,905.735168 681.294189,905.763367 C702.434143,905.931824 723.576477,905.923462 744.717163,905.809326 C753.342896,905.762756 761.992920,905.627991 770.582703,904.928772 C777.691162,904.350220 780.068848,901.344727 780.008301,894.822327 C779.955627,889.137329 776.761597,885.699158 770.374146,885.082092 C764.769104,884.540588 759.120850,884.445496 752.494751,884.153259 M453.130402,927.888367 C458.711273,925.108582 461.517456,920.688477 461.421417,914.366638 C461.318085,907.568298 461.459961,900.766418 461.391113,893.967163 C461.342621,889.177795 461.508545,884.339539 460.890747,879.612976 C459.807434,871.324951 451.712738,865.400085 442.457520,865.598389 C432.429413,865.813293 425.812653,870.756470 425.117767,879.810852 C424.318512,890.225464 424.326202,900.716003 424.357971,911.172363 C424.368225,914.552734 424.919861,918.230042 426.335175,921.250732 C430.324127,929.764343 441.730408,932.549438 453.130402,927.888367 M70.701431,1038.365967 C66.737160,1048.396484 71.128784,1054.816284 82.026581,1054.835693 C97.819916,1054.863892 113.613335,1054.843018 129.406723,1054.843018 C136.529053,1054.843018 143.651382,1054.843018 151.089645,1054.843018 C151.089645,1048.055542 151.089645,1041.658081 151.089645,1034.599976 C127.483421,1034.599976 104.063904,1034.483276 80.648384,1034.736816 C77.455780,1034.771240 74.283188,1036.654663 70.701431,1038.365967 M740.772400,985.997437 C739.569458,986.495117 737.382263,986.887085 737.315613,987.506958 C736.633972,993.849487 736.296631,1000.229065 735.860962,1006.630188 C737.619873,1006.824341 738.270691,1006.958618 738.921631,1006.958984 C760.081421,1006.970276 781.241150,1006.981934 802.400879,1006.942749 C804.046570,1006.939697 805.721252,1006.700073 807.331848,1006.342407 C814.711609,1004.703857 816.841064,1001.493347 816.689026,995.614685 C816.530151,989.472717 812.014282,986.006470 805.106689,986.002197 C783.976685,985.989136 762.846680,985.997437 740.772400,985.997437 M782.276245,1034.589478 C766.883728,1034.589478 751.491211,1034.589478 735.852173,1034.589478 C735.852173,1041.995728 735.852173,1048.266602 735.852173,1054.835205 C760.225952,1054.835205 784.341492,1054.933472 808.455017,1054.760986 C813.980347,1054.721558 817.145081,1050.553345 817.003113,1044.746216 C816.848450,1038.420288 813.694153,1035.111450 807.663452,1034.999756 C799.517395,1034.848999 791.370850,1034.725098 782.276245,1034.589478 M69.087257,999.848450 C71.145821,1006.172546 76.553993,1006.856628 81.867210,1006.902100 C102.342896,1007.077271 122.820831,1006.993958 143.297928,1006.991028 C144.733704,1006.990845 146.169464,1006.861145 147.151230,1006.813660 C147.151230,999.727478 147.151230,992.992065 147.151230,985.630859 C124.943626,985.630859 103.168770,985.490906 81.397171,985.696106 C71.995712,985.784668 67.883606,990.726318 69.087257,999.848450 M693.640381,853.458191 C699.324402,851.918762 702.271912,848.589417 701.971436,844.047607 C701.625854,838.822449 696.369873,833.377014 690.866943,833.219971 C682.282104,832.974915 673.685242,833.155090 664.627197,833.155090 C664.627197,840.594727 664.627197,847.108154 664.627197,853.717834 C674.232971,853.717834 683.523071,853.717834 693.640381,853.458191 M186.773438,844.833313 C186.861633,849.214600 188.669724,852.779541 193.269012,852.955444 C203.082092,853.330750 212.919495,853.070190 222.775360,853.070190 C222.775360,846.451294 222.775360,839.706482 222.775360,831.684204 C213.616959,832.336487 204.726685,832.635132 195.932678,833.716675 C190.320572,834.406738 187.712097,838.691223 186.773438,844.833313 z"/>
  <path fill="#AF834D" opacity="1.000000" stroke="none" d=" M540.786499,1134.667358 C540.894836,1143.826172 541.101868,1152.984985 541.096008,1162.143677 C541.048340,1236.289551 540.976074,1310.435303 540.848694,1384.581055 C540.840759,1389.226440 540.414978,1393.882080 539.935120,1398.507202 C539.826660,1399.551758 538.805908,1401.222412 537.989197,1401.364868 C525.943848,1403.462646 513.861938,1405.350708 500.886353,1407.433472 C500.886353,1397.282715 500.897614,1387.994385 500.884308,1378.706055 C500.837067,1345.718262 500.310791,1312.722168 500.881561,1279.745239 C501.319244,1254.459106 482.155029,1230.345581 456.104462,1225.480591 C431.863922,1220.953735 410.813568,1226.719971 395.503510,1247.352417 C389.719086,1255.147827 386.801880,1264.226440 386.208008,1273.847290 C385.708038,1281.947632 385.892487,1290.094727 385.894745,1298.221069 C385.904480,1333.377808 385.960724,1368.534424 385.984985,1403.691162 C385.985657,1404.656860 385.815460,1405.622559 385.609406,1407.821411 C374.238068,1405.761230 363.235107,1403.576538 352.161133,1401.845947 C346.941101,1401.030151 345.864288,1398.522217 345.874054,1393.496460 C346.019196,1318.683594 345.956116,1243.870239 345.850128,1169.057007 C345.835266,1158.579956 345.332275,1148.103760 345.368408,1136.953857 C346.456665,1135.414551 347.215576,1134.533569 348.009247,1133.684937 C359.386353,1121.520752 368.613678,1108.299805 372.439636,1091.550659 C374.258148,1083.589844 377.678925,1075.745605 381.678955,1068.576904 C396.443451,1042.116089 431.276215,1024.558228 463.084381,1034.753662 C487.934784,1042.718872 504.156067,1059.632568 513.056641,1083.857422 C519.788025,1102.178223 527.287903,1120.052368 540.786499,1134.667358 M410.308167,1057.776489 C408.474609,1059.464600 406.516571,1061.037231 404.828217,1062.859863 C395.651581,1072.765869 390.074646,1084.267090 391.287720,1098.006470 C392.405762,1110.669556 398.244202,1121.346558 406.844666,1130.664062 C427.995880,1153.578735 464.953400,1151.889282 483.637604,1127.044556 C496.052826,1110.535889 498.500153,1087.091919 489.096527,1071.764648 C472.439575,1044.614746 436.837311,1035.669434 410.308167,1057.776489 z"/>
  <path fill="#FBFBFA" opacity="1.000000" stroke="none" d=" M614.682983,1114.941772 C614.500549,1130.607422 614.318115,1146.273071 614.091675,1162.872314 C613.915955,1178.431885 613.796936,1193.057739 613.648865,1207.683472 C613.502319,1222.160889 613.088928,1236.640991 613.256653,1251.114380 C613.350037,1259.176025 614.389160,1267.226929 615.001953,1275.282593 C614.845520,1277.601685 614.568237,1279.920044 614.551025,1282.240112 C614.347534,1309.709595 614.061829,1337.179565 614.116333,1364.648804 C614.126465,1369.767212 612.602844,1372.846680 607.866394,1374.956909 C600.950012,1378.038452 594.286987,1381.688843 586.467346,1385.624512 C586.467346,1374.579712 586.467346,1364.342651 586.467346,1354.105713 C586.467346,1237.686279 586.504211,1121.266846 586.363770,1004.847595 C586.356323,998.706421 588.007263,994.139526 592.731995,990.137756 C609.204041,976.185791 625.463684,961.983093 641.810120,947.882629 C642.422180,947.354553 643.095703,946.897827 644.019287,946.196045 C653.563171,955.338074 662.985229,964.434143 672.492126,973.440796 C677.436890,978.125305 682.425049,982.775757 687.594543,987.207275 C691.160461,990.264099 692.591370,993.878540 692.585327,998.529907 C692.560242,1018.001282 692.732971,1037.473022 692.551819,1057.193359 C682.252563,1044.983887 672.234619,1032.525513 662.053589,1019.751831 C658.400146,1015.671997 655.405457,1011.184387 651.275208,1008.353638 C647.417908,1005.710144 642.216858,1003.136902 637.849182,1003.493774 C626.180969,1004.447083 614.615417,1017.130554 614.300110,1028.817993 C613.879089,1044.426880 614.320862,1060.059082 614.304443,1076.162354 C614.372314,1089.409424 614.527710,1102.175659 614.682983,1114.941772 z"/>
  <path fill="#FDFDFC" opacity="1.000000" stroke="none" d=" M272.925720,1162.904053 C272.933228,1146.980103 272.940765,1131.056274 272.951477,1114.200317 C272.930054,1100.880249 272.905396,1088.492065 272.933350,1075.625488 C272.986664,1059.895630 273.069489,1044.643677 272.960785,1029.393188 C272.880798,1018.168213 262.949951,1005.964111 252.795349,1004.454346 C243.321777,1002.999512 235.168655,1005.347046 228.902390,1012.107361 C222.290604,1019.240417 215.666550,1026.500732 210.137329,1034.462158 C203.793228,1043.597046 198.645996,1053.563232 192.978806,1063.168213 C192.985413,1040.678711 193.006866,1018.189148 192.988647,995.699585 C192.983856,989.788940 197.736679,987.057983 201.293381,983.867126 C215.142258,971.442322 229.292465,959.353394 243.986069,946.569214 C248.965561,951.262207 253.994888,956.226562 259.264038,960.921814 C270.548950,970.977600 281.822083,981.055420 293.378540,990.793701 C298.407867,995.031860 300.986389,999.528687 300.975342,1006.445740 C300.825562,1100.424072 300.965302,1194.402832 300.992676,1288.381470 C301.001617,1319.039185 300.892548,1349.696899 300.837982,1380.354614 C300.835358,1381.838013 300.837677,1383.321411 300.837677,1385.854492 C294.171082,1382.645142 288.331543,1379.263306 282.090363,1376.979004 C274.853790,1374.330444 272.587433,1370.169312 272.757935,1362.277100 C273.366119,1334.129150 272.989807,1305.960083 272.999878,1276.877197 C273.054932,1258.855347 273.142365,1241.755127 273.125519,1224.654907 C273.105225,1204.071289 272.996338,1183.487671 272.925720,1162.904053 z"/>
  <path fill="#FDFDFC" opacity="1.000000" stroke="none" d=" M355.113037,815.028015 C353.416748,789.824219 357.232727,765.659241 368.250061,742.727356 C375.155151,728.354797 384.465881,715.657410 396.026978,704.948120 C409.529449,692.440430 423.951050,680.917480 438.111755,669.132935 C441.754547,666.101379 445.479584,665.397888 449.879883,669.038757 C472.036102,687.370422 494.933990,704.934509 511.218414,729.197205 C524.920044,749.611633 531.373230,772.359680 531.979187,796.832214 C532.119263,802.489075 531.966370,808.153198 531.635498,814.060913 C529.536804,810.935425 527.756226,807.560181 525.964172,804.191101 C504.985260,764.750244 469.213959,746.874939 425.420197,754.800049 C399.883636,759.421204 381.730469,775.380249 367.189270,795.914551 C362.839966,802.056335 359.120850,808.644409 355.113037,815.028015 z"/>
  <path fill="#AE834D" opacity="1.000000" stroke="none" d=" M272.461548,1162.895264 C272.996338,1183.487671 273.105225,1204.071289 273.125519,1224.654907 C273.142365,1241.755127 273.054932,1258.855347 272.948059,1276.401489 C268.717072,1271.084229 265.153290,1264.743042 260.273987,1259.666016 C245.373047,1244.161133 222.742508,1245.683838 210.420258,1263.197510 C207.486511,1267.367310 206.215607,1273.362183 205.925766,1278.614014 C205.064789,1294.214966 205.076263,1309.863892 204.737427,1325.494019 C204.717102,1326.431885 204.615433,1327.368042 203.299683,1329.292847 C195.147614,1321.888794 186.487778,1314.946289 179.112732,1306.835693 C176.450577,1303.908081 176.040909,1298.182129 176.015305,1293.724976 C175.790604,1254.596313 175.885132,1215.465820 175.885071,1176.335938 C175.885071,1172.190063 175.885056,1168.044067 175.885056,1162.886353 C208.215118,1162.886353 240.106232,1162.886353 272.461548,1162.895264 M224.785629,1196.112427 C218.884491,1201.463623 217.137863,1208.041870 219.792450,1214.918457 C222.145966,1221.015137 229.090820,1225.875366 235.574417,1225.963135 C241.766083,1226.047119 247.543564,1221.978882 250.139023,1215.707520 C252.826263,1209.214478 251.114731,1201.948730 245.770386,1197.161621 C240.182739,1192.156494 233.338089,1191.691528 224.785629,1196.112427 z"/>
  <path fill="#AE824D" opacity="1.000000" stroke="none" d=" M615.314087,1275.104004 C614.389160,1267.226929 613.350037,1259.176025 613.256653,1251.114380 C613.088928,1236.640991 613.502319,1222.160889 613.648865,1207.683472 C613.796936,1193.057739 613.915955,1178.431885 614.114380,1163.331299 C643.342834,1162.991577 672.504517,1163.130371 701.666260,1163.259155 C708.959167,1163.291382 709.051208,1163.276001 709.102966,1170.591553 C709.391418,1211.400146 709.537781,1252.210205 709.962402,1293.017334 C710.054077,1301.824219 707.378967,1308.902954 700.304749,1314.296143 C694.501343,1318.720337 688.836304,1323.325928 681.964233,1328.756470 C681.336426,1320.231934 680.573120,1312.944458 680.320374,1305.639404 C680.020874,1296.983276 680.148926,1288.311890 680.114197,1279.647095 C680.061096,1266.395508 672.414734,1255.202026 660.350342,1250.750000 C647.639648,1246.059570 634.745422,1249.300537 626.130371,1259.837280 C622.262939,1264.567383 619.105713,1269.878174 615.314087,1275.104004 M666.777283,1204.371826 C661.655334,1193.878784 652.977478,1190.373901 643.657898,1195.034180 C635.257202,1199.234985 632.350403,1209.032471 637.493958,1217.595581 C641.485779,1224.241333 650.124573,1229.076172 659.313110,1222.864746 C665.639465,1218.588135 667.864746,1212.576782 666.777283,1204.371826 z"/>
  <path fill="#FEFEFD" opacity="1.000000" stroke="none" d=" M540.864502,1134.228760 C527.287903,1120.052368 519.788025,1102.178223 513.056641,1083.857422 C504.156067,1059.632568 487.934784,1042.718872 463.084381,1034.753662 C431.276215,1024.558228 396.443451,1042.116089 381.678955,1068.576904 C377.678925,1075.745605 374.258148,1083.589844 372.439636,1091.550659 C368.613678,1108.299805 359.386353,1121.520752 348.009247,1133.684937 C347.215576,1134.533569 346.456665,1135.414551 345.446228,1136.469727 C345.084839,1109.200439 344.903809,1081.741699 344.960724,1054.283447 C344.964386,1052.516113 346.362640,1050.104370 347.857300,1049.083862 C372.505646,1032.255859 397.277924,1015.609436 422.011780,998.906494 C428.104492,994.792053 434.078766,990.492920 440.303802,986.591980 C441.475433,985.857727 443.985962,985.982483 445.190643,986.767151 C469.323364,1002.485718 493.397583,1018.295288 517.381531,1034.240112 C524.672241,1039.087036 531.721863,1044.307739 538.722351,1049.569580 C539.945312,1050.488892 541.061890,1052.464722 541.065552,1053.955444 C541.131348,1080.566650 541.017578,1107.178467 540.864502,1134.228760 z"/>
  <path fill="#FBFBFB" opacity="1.000000" stroke="none" d=" M296.937592,856.910767 C298.044128,857.986206 298.762909,859.262146 299.748352,859.520325 C306.081726,861.179871 305.979645,865.847534 305.921265,871.062683 C305.719849,889.055542 305.843750,907.052124 305.843750,925.047241 C305.843750,926.655029 305.843750,928.262878 305.843750,931.088806 C299.358734,925.982483 293.708008,921.584351 288.113953,917.115356 C281.372253,911.729370 274.778656,906.151428 267.905701,900.940430 C265.730408,899.291016 262.927643,897.774658 260.301697,897.562378 C255.216873,897.151489 254.162933,894.218506 253.965820,890.056519 C253.880203,888.248840 253.497498,886.455261 253.172958,884.097778 C261.323639,884.097778 269.379486,884.097778 278.028748,884.097778 C278.482178,873.858948 278.912384,864.144409 279.374481,853.709900 C269.934387,853.709900 261.031036,853.709900 252.057434,853.709900 C252.057434,846.736511 252.057434,840.460938 252.057434,833.982239 C259.171967,833.467285 266.070557,832.967957 272.992706,832.466858 C272.992706,824.761047 272.972900,817.473206 272.995941,810.185486 C273.131836,767.169617 287.524841,729.315735 314.732117,696.274841 C330.018036,677.711426 348.305725,662.721313 370.198425,652.468750 C373.424805,650.957825 377.089752,650.005615 380.632446,649.684570 C382.889648,649.479980 385.295532,650.915466 389.176086,652.076904 C365.091034,673.437439 343.146637,694.366211 329.636597,722.308960 C316.236328,750.024719 310.724335,779.510071 309.695679,810.577087 C304.721069,810.805542 299.657990,811.037964 294.413086,811.278809 C292.355530,825.025391 292.453613,838.394836 294.445312,851.748047 C294.699432,853.451721 295.907196,855.013184 296.937592,856.910767 z"/>
  <path fill="#FBFBFA" opacity="1.000000" stroke="none" d=" M627.973877,883.822205 C630.115479,883.822205 631.770081,883.822205 634.135437,883.822205 C633.801575,887.760132 633.690979,891.507996 633.033752,895.157410 C632.861877,896.111633 631.070129,897.282471 629.885803,897.464233 C621.608948,898.734375 615.466553,903.669495 609.235596,908.708862 C600.245422,915.979919 590.998779,922.933716 581.861511,930.022888 C581.396484,929.819824 580.931519,929.616821 580.466492,929.413757 C580.466492,922.342529 580.428406,915.270996 580.474548,908.200012 C580.565857,894.212402 580.606140,880.222656 580.945862,866.240601 C580.988281,864.492432 582.280884,862.025940 583.738159,861.191223 C589.857483,857.686523 591.791260,852.626465 591.565430,845.804810 C591.198425,834.717041 591.466492,823.608276 591.466492,812.330750 C586.677917,811.846069 582.432983,811.416443 577.017090,810.868286 C576.905457,744.641296 547.703857,692.563660 497.152985,651.255066 C501.635193,648.665222 505.562439,648.725891 510.952332,651.190979 C548.391785,668.313599 576.544128,695.177002 594.949890,732.014282 C609.857544,761.850403 615.196289,793.606262 612.978577,826.756470 C612.837585,828.864136 612.960205,830.989441 612.960205,833.424683 C620.167297,833.424683 626.952515,833.424683 634.133789,833.424683 C634.133789,840.114441 634.133789,846.492188 634.133789,853.337891 C625.199707,853.337891 616.276733,853.337891 606.945801,853.337891 C606.945801,863.494019 606.945801,873.193848 606.945801,883.822205 C613.970093,883.822205 620.728516,883.822205 627.973877,883.822205 z"/>
  <path fill="#AF834D" opacity="1.000000" stroke="none" d=" M355.055634,815.452820 C359.120850,808.644409 362.839966,802.056335 367.189270,795.914551 C381.730469,775.380249 399.883636,759.421204 425.420197,754.800049 C469.213959,746.874939 504.985260,764.750244 525.964172,804.191101 C527.756226,807.560181 529.536804,810.935425 531.568726,814.507080 C532.535583,817.617004 530.934814,818.079529 528.533813,817.993774 C520.072571,817.691284 511.607971,817.260071 503.145325,817.274658 C491.187439,817.295227 479.230652,817.826111 467.272552,817.862488 C431.178955,817.972473 395.084900,817.971497 358.991333,817.888855 C357.658783,817.885803 356.329224,816.577576 355.055634,815.452820 z"/>
  <path fill="#8D362E" opacity="1.000000" stroke="none" d=" M753.067444,1109.101562 C749.611389,1108.737183 746.158386,1108.340942 742.698669,1108.016602 C738.055115,1107.581177 735.914185,1105.028809 735.990295,1100.412354 C736.036987,1097.582031 735.847107,1094.747437 735.911987,1091.918091 C736.097595,1083.824707 737.829773,1081.959595 746.069641,1082.049927 C765.700500,1082.265015 785.330750,1082.620850 804.957336,1083.084717 C811.973816,1083.250366 815.757324,1086.862915 814.815430,1093.892334 C813.545471,1103.369995 811.338379,1112.766968 808.912048,1122.036011 C802.944458,1144.833496 796.918762,1167.665405 786.992859,1189.144531 C778.285278,1207.987305 769.820862,1227.042114 755.764954,1242.800903 C755.224792,1243.406494 754.583252,1243.921875 753.105347,1244.416992 C750.947327,1206.864990 751.470642,1169.343506 753.537109,1131.388916 C767.851501,1130.765625 781.664429,1130.669922 795.468079,1130.261353 C797.562195,1130.199463 800.317261,1129.251221 801.544495,1127.728149 C804.522644,1124.032349 803.906921,1119.601807 802.027039,1115.507690 C800.284363,1111.712402 797.666565,1108.943970 792.972961,1108.977173 C779.671448,1109.071289 766.369324,1109.067017 753.067444,1109.101562 z"/>
  <path fill="#8D362F" opacity="1.000000" stroke="none" d=" M132.840637,1131.131592 C132.560547,1135.260376 132.048569,1139.388794 132.039474,1143.518188 C131.993927,1164.178467 132.101532,1184.839111 132.111435,1205.499634 C132.116669,1216.436890 132.046371,1227.374146 131.971832,1238.311157 C131.962234,1239.721924 131.721725,1241.131104 131.488312,1243.595215 C124.439987,1237.232544 119.681786,1230.372925 115.621361,1223.011719 C96.655907,1188.628906 83.298088,1152.059448 73.710167,1114.082031 C71.816132,1106.579712 70.850838,1098.803467 69.990822,1091.094116 C69.470528,1086.430176 71.483856,1082.982910 76.937935,1082.763184 C78.911774,1082.683594 80.871742,1082.048950 82.838814,1082.044922 C102.167000,1082.005371 121.496002,1082.135010 140.823212,1081.997803 C145.482620,1081.964722 147.516144,1083.368286 147.091125,1088.338135 C146.695312,1092.966431 147.347824,1097.685181 146.939392,1102.311157 C146.798187,1103.910400 145.133392,1106.217773 143.678146,1106.684082 C140.577469,1107.677734 137.158447,1107.678223 132.994446,1108.088867 C120.844574,1108.396851 109.568695,1108.658569 98.296112,1109.022217 C90.798492,1109.264038 86.263725,1114.114868 86.157242,1121.810547 C86.077110,1127.601440 88.673035,1129.921265 97.019363,1130.281860 C108.949753,1130.797241 120.899269,1130.869873 132.840637,1131.131592 z"/>
  <path fill="#AE834D" opacity="1.000000" stroke="none" d=" M272.880737,1076.104004 C272.905396,1088.492065 272.930054,1100.880249 272.878357,1113.751587 C246.094360,1115.790405 219.404968,1114.758179 192.770569,1114.890991 C192.770569,1097.102783 192.770569,1080.535645 192.874695,1063.568359 C198.645996,1053.563232 203.793228,1043.597046 210.137329,1034.462158 C215.666550,1026.500732 222.290604,1019.240417 228.902390,1012.107361 C235.168655,1005.347046 243.321777,1002.999512 252.359924,1004.561279 C238.436203,1004.317810 226.697159,1013.768555 225.436234,1025.907837 C223.845062,1041.226440 223.804001,1056.707520 223.154785,1072.121094 C223.033646,1074.997192 224.490082,1076.077759 227.483261,1076.058838 C242.615067,1075.963623 257.748138,1076.068970 272.880737,1076.104004 z"/>
  <path fill="#AE834E" opacity="1.000000" stroke="none" d=" M615.172119,1114.920410 C614.527710,1102.175659 614.372314,1089.409424 614.749268,1076.172363 C629.231445,1075.802124 643.183411,1075.795166 657.129761,1076.071899 C661.097107,1076.150757 662.150391,1074.777222 662.117188,1070.892334 C661.972351,1053.952148 662.153748,1037.009155 662.216675,1020.067261 C672.234619,1032.525513 682.252563,1044.983887 692.508606,1057.651367 C692.746765,1076.311768 692.746765,1094.763062 692.746765,1113.936523 C667.064026,1115.942017 641.345886,1114.656372 615.172119,1114.920410 z"/>
  <path fill="#AE834D" opacity="1.000000" stroke="none" d=" M354.614532,891.854248 C357.809631,884.554382 363.857849,880.313477 369.587067,881.102844 C376.894226,882.109558 381.843719,886.837158 383.146057,894.350830 C383.654266,897.282837 383.931061,900.291931 383.941437,903.267212 C384.009918,922.926941 383.905182,942.587585 384.049805,962.246460 C384.073364,965.444153 383.159180,967.385437 380.412659,969.131653 C371.480804,974.810120 362.737305,980.784729 353.278473,987.072632 C353.132538,985.432373 353.008942,984.689636 353.008667,983.946838 C352.998474,956.295959 352.956207,928.644958 353.063232,900.994507 C353.074554,898.067017 353.971558,895.143005 354.614532,891.854248 z"/>
  <path fill="#AE834D" opacity="1.000000" stroke="none" d=" M503.999756,927.986816 C504.000000,917.835022 503.978394,908.180908 504.006348,898.526855 C504.036163,888.231079 509.150787,882.138977 517.806458,882.016113 C526.021606,881.899536 532.707397,889.048096 532.935791,898.543457 C533.127991,906.534729 532.997375,914.533875 532.998779,922.529541 C533.002380,943.508972 533.000000,964.488464 533.000000,986.885254 C525.844543,982.401367 519.569214,978.275879 513.106567,974.468384 C505.144257,969.777283 502.451630,962.756409 502.983521,953.895203 C503.491364,945.435181 503.674103,936.955505 503.999756,927.986816 z"/>
  <path fill="#FBFBFB" opacity="1.000000" stroke="none" d=" M197.506073,884.723511 C206.406708,884.825562 214.848648,884.825562 224.806458,884.825562 C222.398666,892.623230 220.359665,899.226624 218.315796,905.845764 C210.982391,905.845764 204.352142,905.845764 197.721878,905.845764 C172.097900,905.845764 146.473892,905.863220 120.849991,905.815979 C118.546158,905.811768 116.214584,905.545593 113.945129,905.131348 C107.543030,903.962646 105.628189,901.831482 105.584518,896.151489 C105.537758,890.070435 108.373230,886.000061 113.831741,884.961304 C117.068771,884.345215 120.417259,884.068970 123.716263,884.063965 C145.844116,884.030518 167.972183,884.097473 190.100037,884.174133 C192.416306,884.182190 194.731613,884.465820 197.506073,884.723511 z"/>
  <path fill="#FBFBFA" opacity="1.000000" stroke="none" d=" M752.993225,884.153320 C759.120850,884.445496 764.769104,884.540588 770.374146,885.082092 C776.761597,885.699158 779.955627,889.137329 780.008301,894.822327 C780.068848,901.344727 777.691162,904.350220 770.582703,904.928772 C761.992920,905.627991 753.342896,905.762756 744.717163,905.809326 C723.576477,905.923462 702.434143,905.931824 681.294189,905.763367 C677.758362,905.735168 673.948792,905.253601 670.755798,903.859253 C662.797546,900.383850 663.693848,893.222717 664.467896,885.524658 C669.766846,885.073669 675.171753,884.248901 680.581360,884.216187 C704.551758,884.071045 728.523499,884.153259 752.993225,884.153320 z"/>
  <path fill="#FDFDFC" opacity="1.000000" stroke="none" d=" M452.754211,927.982300 C441.730408,932.549438 430.324127,929.764343 426.335175,921.250732 C424.919861,918.230042 424.368225,914.552734 424.357971,911.172363 C424.326202,900.716003 424.318512,890.225464 425.117767,879.810852 C425.812653,870.756470 432.429413,865.813293 442.457520,865.598389 C451.712738,865.400085 459.807434,871.324951 460.890747,879.612976 C461.508545,884.339539 461.342621,889.177795 461.391113,893.967163 C461.459961,900.766418 461.318085,907.568298 461.421417,914.366638 C461.517456,920.688477 458.711273,925.108582 452.754211,927.982300 z"/>
  <path fill="#FCFCFB" opacity="1.000000" stroke="none" d=" M70.901382,1038.024048 C74.283188,1036.654663 77.455780,1034.771240 80.648384,1034.736816 C104.063904,1034.483276 127.483421,1034.599976 151.089645,1034.599976 C151.089645,1041.658081 151.089645,1048.055542 151.089645,1054.843018 C143.651382,1054.843018 136.529053,1054.843018 129.406723,1054.843018 C113.613335,1054.843018 97.819916,1054.863892 82.026581,1054.835693 C71.128784,1054.816284 66.737160,1048.396484 70.901382,1038.024048 z"/>
  <path fill="#FDFDFC" opacity="1.000000" stroke="none" d=" M741.244507,985.997437 C762.846680,985.997437 783.976685,985.989136 805.106689,986.002197 C812.014282,986.006470 816.530151,989.472717 816.689026,995.614685 C816.841064,1001.493347 814.711609,1004.703857 807.331848,1006.342407 C805.721252,1006.700073 804.046570,1006.939697 802.400879,1006.942749 C781.241150,1006.981934 760.081421,1006.970276 738.921631,1006.958984 C738.270691,1006.958618 737.619873,1006.824341 735.860962,1006.630188 C736.296631,1000.229065 736.633972,993.849487 737.315613,987.506958 C737.382263,986.887085 739.569458,986.495117 741.244507,985.997437 z"/>
  <path fill="#FCFDFC" opacity="1.000000" stroke="none" d=" M782.750366,1034.589600 C791.370850,1034.725098 799.517395,1034.848999 807.663452,1034.999756 C813.694153,1035.111450 816.848450,1038.420288 817.003113,1044.746216 C817.145081,1050.553345 813.980347,1054.721558 808.455017,1054.760986 C784.341492,1054.933472 760.225952,1054.835205 735.852173,1054.835205 C735.852173,1048.266602 735.852173,1041.995728 735.852173,1034.589478 C751.491211,1034.589478 766.883728,1034.589478 782.750366,1034.589600 z"/>
  <path fill="#FEFFFE" opacity="1.000000" stroke="none" d=" M69.062393,999.433594 C67.883606,990.726318 71.995712,985.784668 81.397171,985.696106 C103.168770,985.490906 124.943626,985.630859 147.151230,985.630859 C147.151230,992.992065 147.151230,999.727478 147.151230,1006.813660 C146.169464,1006.861145 144.733704,1006.990845 143.297928,1006.991028 C122.820831,1006.993958 102.342896,1007.077271 81.867210,1006.902100 C76.553993,1006.856628 71.145821,1006.172546 69.062393,999.433594 z"/>
  <path fill="#FEFDFC" opacity="1.000000" stroke="none" d=" M753.050476,1109.560913 C766.369324,1109.067017 779.671448,1109.071289 792.972961,1108.977173 C797.666565,1108.943970 800.284363,1111.712402 802.027039,1115.507690 C803.906921,1119.601807 804.522644,1124.032349 801.544495,1127.728149 C800.317261,1129.251221 797.562195,1130.199463 795.468079,1130.261353 C781.664429,1130.669922 767.851501,1130.765625 753.583374,1130.941528 C753.094604,1123.953247 753.064026,1116.986816 753.050476,1109.560913 z"/>
  <path fill="#FDFCFB" opacity="1.000000" stroke="none" d=" M132.841248,1130.645142 C120.899269,1130.869873 108.949753,1130.797241 97.019363,1130.281860 C88.673035,1129.921265 86.077110,1127.601440 86.157242,1121.810547 C86.263725,1114.114868 90.798492,1109.264038 98.296112,1109.022217 C109.568695,1108.658569 120.844574,1108.396851 132.560181,1108.103027 C132.948151,1115.462158 132.895004,1122.810425 132.841248,1130.645142 z"/>
  <path fill="#FBFBFA" opacity="1.000000" stroke="none" d=" M693.226807,853.588013 C683.523071,853.717834 674.232971,853.717834 664.627197,853.717834 C664.627197,847.108154 664.627197,840.594727 664.627197,833.155090 C673.685242,833.155090 682.282104,832.974915 690.866943,833.219971 C696.369873,833.377014 701.625854,838.822449 701.971436,844.047607 C702.271912,848.589417 699.324402,851.918762 693.226807,853.588013 z"/>
  <path fill="#FBFBFB" opacity="1.000000" stroke="none" d=" M186.873840,844.468140 C187.712097,838.691223 190.320572,834.406738 195.932678,833.716675 C204.726685,832.635132 213.616959,832.336487 222.775360,831.684204 C222.775360,839.706482 222.775360,846.451294 222.775360,853.070190 C212.919495,853.070190 203.082092,853.330750 193.269012,852.955444 C188.669724,852.779541 186.861633,849.214600 186.873840,844.468140 z"/>
  <path fill="#1F2936" opacity="1.000000" stroke="none" d=" M410.596375,1057.566650 C436.837311,1035.669434 472.439575,1044.614746 489.096527,1071.764648 C498.500153,1087.091919 496.052826,1110.535889 483.637604,1127.044556 C464.953400,1151.889282 427.995880,1153.578735 406.844666,1130.664062 C398.244202,1121.346558 392.405762,1110.669556 391.287720,1098.006470 C390.074646,1084.267090 395.651581,1072.765869 404.828217,1062.859863 C406.516571,1061.037231 408.474609,1059.464600 410.596375,1057.566650 M460.238434,1081.314575 C453.614655,1074.462769 445.857239,1071.203003 436.529785,1074.838989 C427.325928,1078.426758 422.548309,1085.597168 421.755127,1095.364014 C420.662506,1108.818115 435.156219,1122.119751 447.289612,1118.609131 C466.585510,1113.026123 471.005890,1095.007202 460.238434,1081.314575 z"/>
  <path fill="#1F2937" opacity="1.000000" stroke="none" d=" M662.053589,1019.751831 C662.153748,1037.009155 661.972351,1053.952148 662.117188,1070.892334 C662.150391,1074.777222 661.097107,1076.150757 657.129761,1076.071899 C643.183411,1075.795166 629.231445,1075.802124 614.836792,1075.691406 C614.320862,1060.059082 613.879089,1044.426880 614.300110,1028.817993 C614.615417,1017.130554 626.180969,1004.447083 637.849182,1003.493774 C642.216858,1003.136902 647.417908,1005.710144 651.275208,1008.353638 C655.405457,1011.184387 658.400146,1015.671997 662.053589,1019.751831 z"/>
  <path fill="#1F2936" opacity="1.000000" stroke="none" d=" M272.933380,1075.625488 C257.748138,1076.068970 242.615067,1075.963623 227.483261,1076.058838 C224.490082,1076.077759 223.033646,1074.997192 223.154785,1072.121094 C223.804001,1056.707520 223.845062,1041.226440 225.436234,1025.907837 C226.697159,1013.768555 238.436203,1004.317810 252.689453,1004.810730 C262.949951,1005.964111 272.880798,1018.168213 272.960785,1029.393188 C273.069489,1044.643677 272.986664,1059.895630 272.933380,1075.625488 z"/>
  <path fill="#202936" opacity="1.000000" stroke="none" d=" M225.126709,1195.947266 C233.338089,1191.691528 240.182739,1192.156494 245.770386,1197.161621 C251.114731,1201.948730 252.826263,1209.214478 250.139023,1215.707520 C247.543564,1221.978882 241.766083,1226.047119 235.574417,1225.963135 C229.090820,1225.875366 222.145966,1221.015137 219.792450,1214.918457 C217.137863,1208.041870 218.884491,1201.463623 225.126709,1195.947266 z"/>
  <path fill="#1F2936" opacity="1.000000" stroke="none" d=" M666.854736,1204.779907 C667.864746,1212.576782 665.639465,1218.588135 659.313110,1222.864746 C650.124573,1229.076172 641.485779,1224.241333 637.493958,1217.595581 C632.350403,1209.032471 635.257202,1199.234985 643.657898,1195.034180 C652.977478,1190.373901 661.655334,1193.878784 666.854736,1204.779907 z"/>
  <path fill="#FDFDFC" opacity="1.000000" stroke="none" d=" M460.483276,1081.579346 C471.005890,1095.007202 466.585510,1113.026123 447.289612,1118.609131 C435.156219,1122.119751 420.662506,1108.818115 421.755127,1095.364014 C422.548309,1085.597168 427.325928,1078.426758 436.529785,1074.838989 C445.857239,1071.203003 453.614655,1074.462769 460.483276,1081.579346 z"/>
</svg>